<svg xmlns="http://www.w3.org/2000/svg" width="80" height="80" fill="none"><path fill="#06F" d="M80 0H0v80h80V0Z"/><path fill="#fff" d="M22.7 51h-8.9v-.8c1.5 0 1.6-.3 1.6-2.1V37.9c0-1.8-.1-2.2-1.6-2.2V35h7.3v2.7a5.6 5.6 0 0 1 4.8-3c3.4 0 5.2 2.3 5.2 5.2V48c0 1.8.1 2.1 1.5 2.1v.8h-8.8v-.8c1.4 0 1.6-.3 1.6-2.1v-7.5c0-2.5-1-3.4-2.4-3.4-.7 0-1.5.5-2 1.4V48c0 1.8.3 2.1 1.7 2.1v.8ZM35 35.7V35h7.2v13c0 1.9.2 2.2 1.6 2.2v.8h-8.9v-.8c1.5 0 1.6-.3 1.6-2.1V37.9c0-1.8-.1-2.2-1.6-2.2Z"/><path fill="#fff" d="M47.4 37.9c0-1.8-.1-2.2-1.5-2.2V35H53v16.6c0 4.7-3 6.6-6.8 6.6-2 0-3.3-.5-4-1l.4-.7c.5.4 1.2.6 2 .6 1.6 0 2.8-1.1 2.8-3.6V37.9Zm9.4-2.2V35H64v13c0 1.9.1 2.2 1.5 2.2v.8h-8.8v-.8c1.4 0 1.6-.3 1.6-2.1V37.9c0-1.8-.2-2.2-1.6-2.2Zm-17.4-5.5a3 3 0 0 0 3-3.1 3 3 0 0 0-3-3.1 3 3 0 0 0-3.1 3 3 3 0 0 0 3 3.2Zm10.9 0a3 3 0 0 0 3-3.1 3 3 0 0 0-3-3.1 3 3 0 0 0-3 3 3 3 0 0 0 3 3.2Zm10.9 0a3 3 0 0 0 3-3.1 3 3 0 0 0-3-3.1 3 3 0 0 0-3 3 3 3 0 0 0 3 3.2Z"/></svg>